# xmcd CD database file
# Copyright (C) 1993-1998 Ti Kan
# 
# Track frame offsets:
#     150
#     12360
#     24307
#     38807
#     57662
#     71190
#     83835
#     93177
#     112425
#     126790
#     138485
#     149367
#     161925
#     172937
# 
# Disc length: 2483 seconds
# 
# Revision: 1
# Processed by: cddbd v1.4b41PL1 Copyright (c) Steve Scherf et al.
# Submitted via: DiscPlay 4.0.4
# 
DISCID=ca09b10e
DTITLE=Tammy Wynette - First Lady of Country
DYEAR=1900
DGENRE=
TTITLE0=Stand by your man
TTITLE1=There goes my everything
TTITLE2=Gentle on my mind
TTITLE3=Honey
TTITLE4=Almost persuaded
TTITLE5=I can still beleave in you
TTITLE6=Your good girls gonna go bad
TTITLE7=Ode to Billy Joe
TTITLE8=No charge
TTITLE9=If we never love again
TTITLE10=Crying in the chapel
TTITLE11=Cry
TTITLE12=Heaven's just a sin away
TTITLE13=D.I.V.O.R.C.E.
EXTD=
EXTT0=
EXTT1=
EXTT2=
EXTT3=
EXTT4=
EXTT5=
EXTT6=
EXTT7=
EXTT8=
EXTT9=
EXTT10=
EXTT11=
EXTT12=
EXTT13=
PLAYORDER=
